<svg xmlns="http://www.w3.org/2000/svg" width="110" height="110" fill="none" xmlns:v="https://vecta.io/nano"><g clip-path="url(#A)"><path d="M110 110H0V0h110v110zM57.619 75.079a.6.6 0 0 0-.582.582v12.494a8.58 8.58 0 0 0 .66 3.259c.427 1.009 1.048 1.901 1.824 2.677a8.7 8.7 0 0 0 6.092 2.483c2.289 0 4.462-.892 6.131-2.483.776-.776 1.397-1.668 1.862-2.677s.698-2.134.698-3.259V75.623a.6.6 0 0 0-.582-.582h-3.725a.6.6 0 0 0-.582.582v12.261c0 1.009-.388 1.979-1.087 2.716s-1.707 1.125-2.716 1.125-1.979-.388-2.677-1.125-1.048-1.707-1.048-2.716V75.623a.6.6 0 0 0-.582-.582l-3.686.039h0zm-34.959-.31c-6.014 0-10.903 4.85-10.903 10.864v.039c0 4.384 2.6 8.342 6.674 10.011 1.358.543 2.794.854 4.268.854 1.319 0 2.677-.233 3.919-.737a10.51 10.51 0 0 0 3.453-2.212.6.6 0 0 0 .039-.815l-2.367-2.522c-.116-.116-.233-.155-.388-.155s-.272.039-.388.116c-1.125.931-2.561 1.436-4.035 1.436-1.591 0-3.143-.66-4.268-1.824a6.37 6.37 0 0 1-1.707-4.346c0-1.63.582-3.182 1.668-4.384s2.638-1.863 4.229-1.863a5.92 5.92 0 0 1 4.074 1.552.54.54 0 0 0 .737 0l2.367-2.445c.116-.116.194-.272.194-.427s-.078-.31-.194-.427c-2.018-1.785-4.656-2.794-7.372-2.716zm61.305.31a.6.6 0 0 0-.582.582v20.021a.6.6 0 0 0 .582.582h7.489c1.707.039 3.337-.543 4.656-1.668a5.44 5.44 0 0 0 1.94-4.19c0-2.832-2.522-4.307-4.035-4.928.854-.466 1.63-1.087 2.289-1.785.776-.815 1.203-1.862 1.203-2.988 0-1.552-.698-3.026-1.901-3.996-1.28-1.086-2.91-1.63-4.578-1.63h-7.062zm-45.513 0a.6.6 0 0 0-.582.582v20.021a.6.6 0 0 0 .582.582H49.82a.6.6 0 0 0 .582-.582v-3.298a.6.6 0 0 0-.582-.582h-7.178v-16.18a.6.6 0 0 0-.582-.582l-3.608.039h0zm10.709-15.21c-.233 0-.466.116-.621.349l-1.086 1.862c-.272.466-.116.621.155.892.621.582 1.358 1.048 2.134 1.397 1.436.66 2.949.97 4.54.97.97 0 1.979-.155 2.871-.504.815-.31 1.552-.737 2.173-1.319.582-.543 1.048-1.203 1.397-1.901.31-.698.504-1.474.504-2.25 0-.892-.194-1.746-.582-2.561-.388-.737-.854-1.358-1.474-1.901-1.28-1.048-2.716-1.824-4.268-2.406-2.522-1.048-3.57-2.018-3.57-3.376 0-.543.272-1.048.698-1.436.543-.466 1.242-.737 1.979-.698 1.358 0 3.182 1.009 4.152 1.63l.039.039a.44.44 0 0 0 .31.116c.31-.039.582-.194.737-.466l1.164-1.746c.116-.155.155-.388.116-.582s-.116-.31-.272-.427c-1.746-1.28-3.88-1.979-6.053-2.018a7 7 0 0 0-5.199 1.901 5.65 5.65 0 0 0-1.591 3.919c0 .815.155 1.63.504 2.367.31.66.737 1.281 1.28 1.824 1.125 1.048 2.483 1.824 3.919 2.367 1.048.388 2.018.931 2.871 1.63.621.505.97 1.242.97 2.018 0 .621-.31 1.242-.776 1.668-.543.466-1.242.698-1.979.66-.97-.039-1.901-.31-2.716-.776a13 13 0 0 1-1.746-1.048c-.039-.039-.078-.039-.078-.039-.194-.116-.349-.155-.504-.155h0zm37.676-3.104h3.376l4.035 8.032c.078.194.272.272.466.272h3.182c.194 0 .388-.078.504-.272s.116-.427 0-.621l-4.152-7.683c2.755-1.125 4.462-3.453 4.462-6.092a6.6 6.6 0 0 0-6.596-6.518H83.46a.6.6 0 0 0-.582.582v20.021a.6.6 0 0 0 .582.582h2.794a.6.6 0 0 0 .582-.582v-7.721h0zM65.69 43.884a.6.6 0 0 0-.582.582v20.021a.6.6 0 0 0 .582.582h12.3a.6.6 0 0 0 .582-.582v-2.483a.6.6 0 0 0-.582-.582h-8.963v-5.277h7.489a.6.6 0 0 0 .582-.582v-2.522a.6.6 0 0 0-.582-.582h-7.489v-4.966h8.963a.6.6 0 0 0 .582-.582v-2.483a.6.6 0 0 0-.582-.582h-12.3v.039zM31.429 61.189h9.04l1.475 3.259c.116.388.466.621.892.621h2.638c.194 0 .388-.078.504-.233s.116-.388 0-.543l-9.312-20.37c-.078-.194-.272-.349-.504-.349h-.31a.5.5 0 0 0-.505.349l-9.39 20.37c-.078.155-.078.388 0 .543.116.155.31.272.504.233h2.638c.388 0 .737-.233.892-.621l1.436-3.259h0zm-18.43-17.305a.6.6 0 0 0-.582.582v20.021a.6.6 0 0 0 .582.582h11.058a.6.6 0 0 0 .582-.582v-2.483a.6.6 0 0 0-.582-.582h-7.721V44.466a.6.6 0 0 0-.582-.582h-2.755 0zM82.84 13.192c-.116 0-.233.039-.31.155-.039.116 0 .233.078.31l7.721 10.437v9.894c0 .349.349.388.66.388h.349a.39.39 0 0 0 .388-.388v-9.933l7.876-10.399c.078-.078.116-.194.078-.31-.078-.116-.194-.155-.31-.155h-.892c-.155 0-.31.078-.388.194l-7.023 9.39-6.907-9.39c-.078-.116-.233-.194-.388-.194h-.931 0zm-15.055 0a.39.39 0 0 0-.388.388v20.37a.39.39 0 0 0 .388.388h10.67c.194.039.349-.116.388-.31v-.582c0-.194-.039-.388-.388-.388h-9.661V13.541c0-.194-.155-.388-.349-.388h-.66v.039zm-20.254 0a.39.39 0 0 0-.388.388v20.37a.39.39 0 0 0 .388.388h10.67c.194.039.349-.116.388-.31v-.582c0-.194-.039-.388-.388-.388H48.54V13.541c0-.194-.155-.388-.349-.388h-.66v.039zm-13.309 0a.39.39 0 0 0-.388.388v20.37a.39.39 0 0 0 .388.388h.621c.233 0 .427-.155.427-.388V13.58a.39.39 0 0 0-.388-.388h-.66 0zm-20.254 0a.39.39 0 0 0-.388.388v20.37a.39.39 0 0 0 .388.388h10.67c.194.039.349-.116.388-.31v-.582c0-.233-.039-.388-.388-.388h-9.661V13.541c0-.194-.155-.388-.349-.388h-.66v.039zm76.864 78.727h-2.755v-4.307h2.444c1.164 0 2.483.892 2.483 2.134.039 1.164-.931 2.134-2.173 2.173h0zm-.388-8.265h-2.367v-4.229h2.367c.543 0 1.087.194 1.474.582a2.12 2.12 0 0 1 .621 1.474c0 .582-.233 1.125-.621 1.552-.349.388-.892.621-1.474.621zm-51.45-25.802h-6.092l2.949-6.635h.078l3.065 6.635zm52.808-4.307h-4.928v-6.014h4.928c1.63 0 2.949 1.319 2.988 2.949 0 1.668-1.319 3.026-2.988 3.065z" fill="#fff"/></g><defs><clipPath id="A"><path fill="#fff" d="M0 0h110v110H0z"/></clipPath></defs></svg>