<svg xmlns="http://www.w3.org/2000/svg" width="110" height="111" fill="none" xmlns:v="https://vecta.io/nano"><g clip-path="url(#A)"><path d="M110 110.609H0v-110h110v110zM56.882 76.775a.6.6 0 0 0-.582.582v12.96c0 2.212.892 4.307 2.522 5.781 1.668 1.513 3.88 2.328 6.13 2.328 2.289.039 4.462-.815 6.169-2.328 1.63-1.475 2.561-3.57 2.561-5.781v-12.96a.6.6 0 0 0-.582-.582h-3.764a.6.6 0 0 0-.582.582v12.727c.039.97-.349 1.901-1.086 2.561-.776.621-1.746.931-2.716.892-.97.039-1.94-.272-2.677-.892a3.34 3.34 0 0 1-1.048-2.561V77.357a.6.6 0 0 0-.582-.582h-3.764 0zm-35.58-.31a10.95 10.95 0 1 0 .078 21.961c1.319 0 2.638-.233 3.88-.737 1.28-.504 2.483-1.28 3.453-2.25.116-.117.155-.272.194-.427 0-.155-.039-.31-.155-.427l-2.367-2.522c-.116-.116-.233-.155-.388-.155s-.272.039-.388.116c-1.125.97-2.6 1.513-4.074 1.474-1.63 0-3.182-.66-4.307-1.824s-1.707-2.755-1.707-4.346.582-3.221 1.707-4.423c1.086-1.203 2.639-1.862 4.268-1.862 1.513-.039 2.988.543 4.113 1.552.194.194.543.233.737 0l2.367-2.483c.116-.116.194-.272.194-.427s-.078-.31-.194-.427c-2.018-1.862-4.656-2.871-7.411-2.794h0zm62.159.31a.6.6 0 0 0-.582.582v20.176a.6.6 0 0 0 .582.582h7.566c1.707.039 3.376-.543 4.695-1.591.621-.504 1.087-1.125 1.436-1.862a5.91 5.91 0 0 0 .543-2.444 4.59 4.59 0 0 0-1.319-3.376c-.776-.737-1.707-1.28-2.716-1.591v-.039a5.08 5.08 0 0 0 3.221-6.441c-.31-.931-.892-1.746-1.669-2.367a6.94 6.94 0 0 0-4.617-1.63H83.46h0zm-46.095 0a.6.6 0 0 0-.582.582v20.176a.6.6 0 0 0 .582.582h11.446a.6.6 0 0 0 .582-.582v-3.337a.6.6 0 0 0-.582-.582h-7.256V77.318a.6.6 0 0 0-.582-.582h-3.608v.039zm52.148-31.623c-2.91 0-5.704 1.164-7.76 3.221-4.268 4.307-4.19 11.291.116 15.559 4.268 4.191 11.136 4.229 15.404 0 4.307-4.307 4.307-11.252 0-15.559-2.056-2.095-4.85-3.259-7.76-3.221zm-45.785 0c-2.91 0-5.704 1.164-7.76 3.221-4.229 4.346-4.113 11.33.233 15.559 4.268 4.113 11.019 4.152 15.287 0 4.307-4.307 4.307-11.252 0-15.559-2.018-2.095-4.811-3.259-7.76-3.221zm16.141.272a.6.6 0 0 0-.582.582v3.337a.6.6 0 0 0 .582.582h4.346v16.296a.6.6 0 0 0 .582.582h3.647a.6.6 0 0 0 .582-.582V49.925h4.346a.6.6 0 0 0 .582-.582v-3.337a.6.6 0 0 0-.582-.582H59.87h0zm-46.91 0a.6.6 0 0 0-.582.582v20.176a.6.6 0 0 0 .582.582h7.566c1.707.039 3.376-.543 4.695-1.591.621-.504 1.086-1.125 1.436-1.862a5.91 5.91 0 0 0 .543-2.445 4.59 4.59 0 0 0-1.319-3.376c-.776-.737-1.707-1.28-2.716-1.591v-.039c2.677-.892 4.113-3.802 3.22-6.441a5.1 5.1 0 0 0-1.668-2.367 6.94 6.94 0 0 0-4.617-1.63h-7.139 0zm68.794-31.312c-.116 0-.233.039-.31.155-.039.116 0 .233.078.31l7.76 10.515v9.972c0 .349.349.388.66.388h.349a.39.39 0 0 0 .388-.388V25.054l7.915-10.476c.078-.078.116-.194.078-.31-.078-.116-.194-.155-.31-.155h-.931c-.155 0-.31.078-.388.194l-7.062 9.467-6.945-9.467c-.078-.116-.233-.194-.388-.194h-.892 0zm-15.171 0a.39.39 0 0 0-.388.388v20.564a.39.39 0 0 0 .388.388H77.33a.33.33 0 0 0 .388-.31v-.582c0-.194-.039-.388-.388-.388h-9.739V14.5c0-.194-.155-.388-.349-.388h-.66zm-20.409 0a.39.39 0 0 0-.388.388v20.564a.39.39 0 0 0 .388.388h10.748a.33.33 0 0 0 .388-.31v-.582c0-.194-.039-.388-.388-.388h-9.739V14.5c0-.194-.155-.388-.349-.388h-.66 0zm-12.959 0a.39.39 0 0 0-.388.388v20.564a.39.39 0 0 0 .388.388h.66c.233 0 .427-.155.427-.388V14.5a.39.39 0 0 0-.388-.388h-.698zm-20.409 0a.39.39 0 0 0-.388.388v20.564a.39.39 0 0 0 .388.388h10.748a.33.33 0 0 0 .388-.31v-.582c0-.194-.039-.388-.388-.388h-9.739V14.5c0-.194-.155-.388-.349-.388h-.66 0zM90.212 93.77h-2.6v-4.346h2.638c.621-.039 1.242.194 1.707.621.388.427.621.97.582 1.552.039 1.397-.776 2.173-2.328 2.173h0zm-.039-8.342h-2.522v-4.268h2.522c1.087-.039 1.979.815 1.979 1.901v.194a2.04 2.04 0 0 1-1.901 2.173h-.078zM19.711 62.419h-2.6v-4.346h2.639c.621-.039 1.242.194 1.707.621.388.427.621.97.582 1.552.039 1.397-.776 2.173-2.328 2.173h0zm69.802-.194c-3.337 0-6.053-2.716-6.053-6.053a6.11 6.11 0 0 1 1.785-4.307c2.328-2.367 6.131-2.406 8.497-.078l.078.078a6.08 6.08 0 0 1 1.785 4.307c0 3.337-2.755 6.014-6.092 6.053zm-45.785 0c-3.337 0-6.053-2.716-6.053-6.053a6.11 6.11 0 0 1 1.785-4.307c2.328-2.367 6.131-2.406 8.497-.078l.078.078a6.08 6.08 0 0 1 1.785 4.307c0 3.337-2.716 6.014-6.092 6.053h0zm-24.095-8.109h-2.522v-4.268h2.522c1.086-.039 1.979.815 1.979 1.901v.194a2.04 2.04 0 0 1-1.901 2.173h-.078z" fill="#fff"/></g><defs><clipPath id="A"><path fill="#fff" transform="translate(0 .609)" d="M0 0h110v110H0z"/></clipPath></defs></svg>