<svg xmlns="http://www.w3.org/2000/svg" width="124" height="124" fill="none" xmlns:v="https://vecta.io/nano"><g clip-path="url(#A)"><path d="M61.991 124c-2.1 0-4.243-.087-6.343-.306C26.424 120.676 3.281 97.582.306 68.32.087 66.221 0 64.078 0 61.978c0-1.968.087-3.98.262-5.948.175-1.925.481-3.893.831-5.773 1.444-7.479 4.244-14.609 8.268-21.039 1.969-3.149 4.244-6.123 6.737-8.879v32.192a.69.69 0 0 0 .7.7h19.293c.35.044.656-.219.7-.569v-1.05c0-.175 0-.35-.131-.481-.175-.175-.394-.262-.613-.219H18.637V17.671c5.644-5.511 12.25-9.885 19.556-12.947 3.719-1.531 7.569-2.712 11.506-3.499 2.012-.394 4.025-.7 6.081-.919S59.935 0 61.991 0s4.244.087 6.343.306c29.268 2.974 52.366 26.112 55.341 55.33.613 5.905.35 11.853-.7 17.67-.656 3.63-1.662 7.173-2.975 10.629 0-1.968-.35-3.937-1.05-5.774-1.181-3.062-3.631-5.424-6.693-6.517-1.531-.525-3.15-.831-4.769-.787-1.225 0-2.406.219-3.587.569-.831.219-1.575.612-2.275 1.05V59.573c0-.306-.131-.612-.35-.831a1.48 1.48 0 0 0-.831-.394h-5.95c-.306 0-.612.131-.831.394-.219.219-.35.525-.35.831v35.91c0 .656.525 1.181 1.225 1.225h2.45c.306 0 .612-.131.787-.35.263-.263.438-.569.525-.919l.7-2.099c.175.219.35.437.569.612 2.1 2.143 4.987 3.324 7.962 3.324 1.225 0 2.45-.175 3.631-.569 1.138-.35 2.188-.875 3.194-1.575-5.512 8.661-13.081 15.834-22.049 20.864C83.078 121.288 72.622 124 61.991 124h0zm4.987-52.574c-.306 0-.569.131-.787.35a1.22 1.22 0 0 0-.35.875v12.641c0 3.893.656 6.736 2.056 8.704.744 1.093 1.794 1.925 2.975 2.449a8.39 8.39 0 0 0 2.1.656c.831.175 1.706.219 2.537.219a8.88 8.88 0 0 0 2.625-.394c.788-.219 1.531-.525 2.188-.962a14.66 14.66 0 0 0 3.15-2.493l.875 2.362c.131.219.263.437.481.612s.438.263.744.263h2.537c.656 0 1.181-.525 1.225-1.225V72.607c0-.656-.481-1.181-1.138-1.225h-5.775c-.306 0-.612.044-.919.219a1.1 1.1 0 0 0-.437 1.006V85.51a6.44 6.44 0 0 1-.175 1.575c-.131.437-.306.875-.612 1.268-.656.787-1.619 1.181-2.625 1.137a5.02 5.02 0 0 1-1.619-.262c-.437-.175-.787-.481-1.05-.831-.263-.394-.481-.875-.569-1.356-.131-.612-.175-1.269-.175-1.881V72.694c0-.656-.481-1.181-1.137-1.225h-1.575l18.243-42.427c.175-.262.219-.569.088-.831-.088-.131-.306-.219-.481-.219h-1.225c-.394 0-.7.219-.831.612l-9.318 21.87h-.175l-8.925-21.87c-.044-.175-.175-.35-.35-.481-.175-.087-.35-.131-.525-.131h-1.137a.56.56 0 0 0-.437.175c-.131.262-.087.612.044.875L76.559 53.23l-7.875 18.195h-1.706 0zM37.58 57.823a20.14 20.14 0 0 0-3.981.394c-7.743 1.575-13.781 7.654-15.356 15.352-.525 2.624-.525 5.336 0 8.004 1.313 6.342 5.644 11.635 11.637 14.128 1.181.481 2.45.875 3.719 1.137a20.48 20.48 0 0 0 3.981.394c2.406 0 4.812-.437 7.087-1.312a18.76 18.76 0 0 0 6.212-4.024c.175-.219.306-.481.306-.744s-.087-.525-.263-.743l-4.287-4.549c-.175-.219-.437-.306-.7-.306s-.481.088-.7.219c-.481.437-1.006.787-1.531 1.137-.569.306-1.138.612-1.706.831-.612.219-1.269.394-1.925.525-.7.131-1.4.175-2.144.175-2.931 0-5.687-1.181-7.7-3.28-.481-.525-.919-1.05-1.269-1.662-.394-.612-.7-1.225-.962-1.881-.525-1.356-.831-2.843-.831-4.286s.262-2.974.787-4.33c.262-.656.569-1.312.962-1.924s.788-1.137 1.269-1.662 1.006-.962 1.575-1.4c1.794-1.268 3.937-1.968 6.125-1.968.656 0 1.312.044 1.969.175a10.61 10.61 0 0 1 3.675 1.356c.613.35 1.181.787 1.706 1.268.35.394.962.394 1.356 0l4.243-4.418c.219-.219.306-.481.306-.787a.86.86 0 0 0-.394-.744c-1.75-1.618-3.762-2.931-5.95-3.805-2.275-.875-4.725-1.269-7.218-1.269zm17.368.569c-.306 0-.613.131-.831.394-.219.219-.35.525-.35.831v35.91c0 .656.525 1.181 1.225 1.225h5.906c.656 0 1.181-.525 1.225-1.225v-35.91c0-.087 0-.131-.044-.219l.131-43.608c0-.219-.087-.437-.263-.569-.131-.131-.35-.219-.569-.262h-.788c-.219 0-.437.088-.612.262-.131.175-.219.35-.219.569v42.646h-4.812v-.044zm-4.419-43.476c-.219 0-.437.088-.613.262-.131.175-.219.35-.219.569v36.697c0 .394.175.831.7.831h.875c.394.044.744-.219.831-.612V15.746c0-.219-.088-.437-.262-.569-.131-.131-.35-.219-.569-.262h-.744 0zm-9.712 13.034c-.219 0-.437.087-.613.262-.131.175-.219.35-.219.569v23.663c0 .394.175.831.7.831h.875c.394.044.744-.219.831-.612V28.78c0-.219-.088-.437-.263-.569-.131-.131-.35-.219-.569-.262h-.744 0zm.306-11.197c-.569 0-1.137.219-1.531.612s-.656.962-.656 1.531c.044 1.225 1.094 2.143 2.319 2.1.525-.044 1.006-.262 1.4-.612.394-.394.613-.919.613-1.487a2.13 2.13 0 0 0-2.056-2.143h-.087zm65.273 72.651a5.83 5.83 0 0 1-2.144-.394c-1.269-.525-2.319-1.531-2.8-2.799a6.01 6.01 0 0 1-.394-2.143 5.61 5.61 0 0 1 .394-2.099c.263-.612.613-1.181 1.094-1.662s1.05-.831 1.706-1.094c.7-.262 1.4-.394 2.144-.394 1.4-.044 2.756.525 3.762 1.487.481.481.875 1.05 1.138 1.662.262.656.393 1.4.393 2.099 0 .744-.131 1.487-.393 2.143s-.613 1.225-1.138 1.706c-1.006.962-2.362 1.487-3.762 1.487z" fill="#fff"/></g><defs><clipPath id="A"><path fill="#fff" d="M0 0h124v124H0z"/></clipPath></defs></svg>