<svg xmlns="http://www.w3.org/2000/svg" width="18" height="18" fill="none" xmlns:v="https://vecta.io/nano"><path d="M1.272 13.38A8.88 8.88 0 0 1 .076 8.921C.079 1.056 9.624-2.988 15.39 2.588l-.011.029a8.82 8.82 0 0 1 1.943 2.888c.45 1.083.681 2.247.679 3.421 0 6.787-7.321 11.041-13.25 7.837L0 18l1.272-4.62zm3.971 1.899c4.971 2.922 11.256-.654 11.262-6.379a7.36 7.36 0 0 0-.565-2.843 7.32 7.32 0 0 0-1.617-2.399c-.692-.695-1.514-1.245-2.417-1.62s-1.872-.566-2.85-.563c-1.321-.011-2.622.335-3.765 1.003S3.204 4.11 2.558 5.271a7.47 7.47 0 0 0-.939 3.806c.031 1.33.417 2.628 1.117 3.757l.179.281-.754 2.734 2.813-.732.269.16zm5.197-2.421c-1.896-.651-2.933-1.12-4.88-3.668-.991-1.396-1.283-2.708-.125-3.98a1.07 1.07 0 0 1 .46-.247c.171-.043.35-.043.521 0 .133 0 .31-.053.482.365l.662 1.582c.034.056.053.12.056.186s-.01.131-.039.19c-.4.757-.84.809-.63 1.172a6.5 6.5 0 0 0 1.192 1.485 5.82 5.82 0 0 0 1.724 1.065c.213.097.338.086.464-.053s.536-.622.678-.834c.203-.305.368-.2 1.946.586l.007-.054c.216.097.357.151.409.248.058.345.013.701-.129 1.02-.158.261-.368.487-.617.662s-.531.297-.829.358c-.171.025-.343.039-.515.04-.283.003-.564-.039-.834-.123v.001z" fill="#fff"/></svg>