<svg xmlns="http://www.w3.org/2000/svg" xmlns:xlink="http://www.w3.org/1999/xlink" width="120" height="40" fill="none" xmlns:v="https://vecta.io/nano"><g fill="#000"><path d="M1.043 35.686c.011-.048.059-.081.107-.081h.096c.041 0 .088.029.099.066l1.168 3.243h.029l1.15-3.243c.011-.037.059-.066.099-.066h.096c.048 0 .096.037.107.081l.759 3.956c.018.081-.018.14-.107.14H4.41a.12.12 0 0 1-.107-.081l-.523-3.03h-.022l-1.083 3.107c-.011.037-.066.066-.099.066h-.107c-.037 0-.088-.029-.099-.066l-1.098-3.107H1.25L.737 39.7c-.007.04-.059.081-.107.081H.395c-.088 0-.125-.059-.107-.14l.763-3.956h-.007zm5.846.088c0-.059.048-.11.111-.11h2.325c.066 0 .111.051.111.11v.169c0 .059-.048.11-.111.11H7.342v1.438h1.691c.059 0 .111.051.111.11v.169c0 .066-.052.11-.111.11H7.342v1.5h1.982c.066 0 .111.051.111.11v.169c0 .059-.048.11-.111.11H6.999c-.066 0-.111-.051-.111-.11v-3.897.011zm4.666 0a.11.11 0 0 1 .107-.11h1.319a2.07 2.07 0 0 1 2.071 2.055 2.08 2.08 0 0 1-2.071 2.066h-1.319a.11.11 0 0 1-.107-.11v-3.897-.004zm1.374 3.603c.965 0 1.643-.687 1.643-1.658s-.678-1.654-1.643-1.654h-.925v3.313h.925zm4.268-3.603c0-.059.052-.11.111-.11h.236c.059 0 .11.051.11.11v3.897c0 .059-.052.11-.11.11h-.236c-.059 0-.111-.051-.111-.11v-3.897z"/><use xlink:href="#B"/><use xlink:href="#C"/><path d="M28.344 35.711c0-.059.052-.107.111-.107h.088c.04 0 .07.011.096.048l2.623 3.261h.011v-3.136a.11.11 0 0 1 .11-.11h.206c.059 0 .11.052.11.11v3.96a.11.11 0 0 1-.11.107h-.048c-.04 0-.07-.011-.096-.048l-2.671-3.324h-.007v3.202a.11.11 0 0 1-.11.11h-.206c-.059 0-.111-.051-.111-.11v-3.96l.004-.004zm5.237 3.92l1.794-3.96c.019-.037.048-.066.099-.066h.059c.052 0 .081.029.099.066l1.78 3.96c.037.077-.011.154-.099.154h-.236c-.052 0-.088-.037-.099-.066l-.435-.971H34.45l-.431.971a.11.11 0 0 1-.099.066h-.236c-.089 0-.136-.077-.099-.154h-.004zm2.8-1.246l-.862-1.93h-.048l-.862 1.93h1.769.004zm5.592-2.611a.11.11 0 0 1 .11-.11h2.325c.066 0 .111.051.111.11v.169c0 .059-.048.11-.111.11h-1.982v1.438h1.691c.059 0 .111.051.111.11v.169c0 .066-.052.11-.111.11h-1.691v1.5h1.982c.066 0 .111.051.111.11v.169c0 .059-.048.11-.111.11h-2.325c-.066 0-.11-.051-.11-.11v-3.897.011zm4.406 3.39l.088-.11c.059-.077.107-.107.188-.037.041.037.49.43 1.013.43.479 0 .788-.301.788-.673 0-.404-.354-.64-1.032-.93-.648-.276-1.039-.522-1.039-1.195 0-.401.317-1.048 1.256-1.048a1.93 1.93 0 0 1 1.01.301c.037.018.099.088.037.199l-.059.099c-.048.081-.111.081-.206.029-.247-.147-.453-.235-.785-.235-.626 0-.814.401-.814.647 0 .419.302.599.796.805.796.323 1.308.625 1.308 1.305 0 .614-.582 1.085-1.275 1.085s-1.168-.404-1.245-.478c-.048-.04-.118-.096-.037-.199l.007.004zm5.357-3.107h-1.028c-.066 0-.11-.052-.11-.11v-.169a.11.11 0 0 1 .11-.11h2.502c.066 0 .111.051.111.11v.169c0 .059-.048.11-.111.11h-1.028v3.614c0 .059-.052.11-.111.11h-.225c-.059 0-.111-.051-.111-.11v-3.614zm3.575-.283c0-.059.048-.11.111-.11h2.325c.066 0 .11.051.11.11v.169a.11.11 0 0 1-.11.11h-1.982v1.438h1.691c.059 0 .111.051.111.11v.169c0 .066-.052.11-.111.11h-1.691v1.5h1.982c.066 0 .11.051.11.11v.169a.11.11 0 0 1-.11.11h-2.325c-.066 0-.111-.052-.111-.11v-3.897.011zm.737-.728c-.022-.048 0-.096.037-.11l.884-.493c.037-.022.125-.037.155.018l.107.213c.022.048.011.107-.037.125l-.951.393c-.081.037-.111.037-.136-.011l-.059-.129v-.007zm4.653 1.011h-1.028c-.066 0-.111-.052-.111-.11v-.169c0-.059.048-.11.111-.11h2.502c.066 0 .111.051.111.11v.169c0 .059-.048.11-.111.11h-1.028v3.614c0 .059-.051.11-.111.11h-.225c-.059 0-.111-.051-.111-.11v-3.614z"/><use xlink:href="#C" x="38.78"/><use xlink:href="#B" x="47.072"/><path d="M72.032 39.631l1.794-3.96c.018-.037.048-.066.1-.066h.059c.052 0 .081.029.099.066l1.78 3.96c.037.077-.011.154-.099.154h-.236c-.052 0-.088-.037-.099-.066l-.435-.971h-2.093l-.431.971c-.011.029-.048.066-.099.066h-.236c-.088 0-.136-.077-.1-.154h-.004zm2.8-1.246l-.862-1.93h-.048l-.862 1.93h1.769.004z"/><use xlink:href="#D"/><use xlink:href="#D" x="17.889"/><path d="M72.677 16.118v2.699 9.324h3.084l-.007-9.324v-2.699a8.46 8.46 0 0 1 1.466-4.739L84.976 0H81.24l-6.544 9.592-.483.776-.483-.776L67.191 0h-3.736l7.76 11.379a8.4 8.4 0 0 1 1.463 4.739zM24.231 0H21.1v28.141h3.132V0zm-9.474 25.012h-7.38c-2.34 0-4.245-1.901-4.245-4.232V0H0v20.78a7.38 7.38 0 0 0 7.376 7.361h7.38v-3.125-.004zm73.541-4.959c.011-.044.055-.077.1-.077h.122c.055 0 .088.022.111.077l2.277 6.772h.022l2.288-6.772c.022-.055.055-.077.111-.077h.122c.044 0 .088.033.099.077l1.57 7.611c.022.11-.022.143-.122.143h-.265c-.066 0-.122-.055-.133-.121l-1.249-6.463h-.022l-2.233 6.607c-.022.066-.088.088-.155.088h-.044c-.055 0-.122-.011-.144-.088l-2.233-6.607h-.022l-1.249 6.464c-.011.066-.066.121-.133.121h-.265c-.1 0-.144-.033-.122-.143l1.57-7.611zm13.612.176c0-.077.066-.143.144-.143h4.432c.078 0 .144.066.144.143v.188c0 .077-.066.143-.144.143h-4.045v3.044h3.504c.077 0 .143.066.143.143v.188c0 .077-.066.143-.143.143h-3.504v3.265h4.045c.078 0 .144.066.144.143v.177c0 .077-.066.143-.144.143h-4.432c-.078 0-.144-.066-.144-.143v-7.434zm11.723 0c0-.077.066-.143.132-.143h2.344c2.144 0 3.891 1.732 3.891 3.849s-1.673 3.872-3.818 3.872h-2.343c-.066 0-.133-.066-.133-.143l-.073-7.434zm2.461 7.103c1.968 0 3.353-1.467 3.353-3.397s-1.448-3.375-3.427-3.375h-1.868l.074 6.772h1.868zm-34.393-7.247h-.369v19.696h.369V20.085z"/></g><defs ><path id="B" d="M21.925 35.605c.597 0 1.028.206 1.426.548.048.048.052.118.007.165l-.158.158c-.048.059-.096.051-.155-.007-.306-.265-.696-.441-1.127-.441-.932 0-1.647.783-1.647 1.695s.715 1.688 1.647 1.688c.512 0 .814-.176 1.127-.441a.1.1 0 0 1 .155.007l.136.136c.048.037.037.118-.007.158-.391.353-.877.57-1.404.57-1.179 0-2.13-.934-2.13-2.114a2.12 2.12 0 0 1 2.13-2.125v.004z"/><path id="C" d="M25.488 35.774c0-.059.052-.11.111-.11h.236c.059 0 .111.051.111.11v3.897c0 .059-.052.11-.111.11h-.236c-.059 0-.111-.051-.111-.11v-3.897z"/><path id="D" d="M48.565 25.012h-7.38c-2.34 0-4.245-1.901-4.245-4.232V0h-3.132v20.78a7.38 7.38 0 0 0 7.376 7.361h7.38v-3.125-.004z"/></defs></svg>